<?xml version="1.0" encoding="UTF-8" standalone="no"?>
<!-- Created with Inkscape (http://www.inkscape.org/) -->

<svg
   xmlns:dc="http://purl.org/dc/elements/1.1/"
   xmlns:cc="http://creativecommons.org/ns#"
   xmlns:rdf="http://www.w3.org/1999/02/22-rdf-syntax-ns#"
   xmlns:svg="http://www.w3.org/2000/svg"
   xmlns="http://www.w3.org/2000/svg"
   xmlns:sodipodi="http://sodipodi.sourceforge.net/DTD/sodipodi-0.dtd"
   xmlns:inkscape="http://www.inkscape.org/namespaces/inkscape"
   width="168.93016mm"
   height="168.88969mm"
   viewBox="0 0 598.57143 598.42805"
   id="svg2"
   version="1.1"
   inkscape:version="0.91 r13725"
   sodipodi:docname="logo-wp-appkit-square.svg">
  <defs
     id="defs4" />
  <sodipodi:namedview
     id="base"
     pagecolor="#ffffff"
     bordercolor="#666666"
     borderopacity="1.0"
     inkscape:pageopacity="0.0"
     inkscape:pageshadow="2"
     inkscape:zoom="0.7"
     inkscape:cx="168.57984"
     inkscape:cy="296.81016"
     inkscape:document-units="px"
     inkscape:current-layer="layer1"
     showgrid="false"
     showguides="true"
     inkscape:guide-bbox="true"
     inkscape:window-width="1366"
     inkscape:window-height="706"
     inkscape:window-x="1672"
     inkscape:window-y="115"
     inkscape:window-maximized="1"
     fit-margin-top="0"
     fit-margin-left="0"
     fit-margin-right="0"
     fit-margin-bottom="0">
    <sodipodi:guide
       position="466.80965,522.88979"
       orientation="0,1"
       id="guide4153" />
    <sodipodi:guide
       position="-0.102238,269.73691"
       orientation="1,0"
       id="guide4155" />
    <sodipodi:guide
       position="597.90809,298.02118"
       orientation="1,0"
       id="guide4157" />
    <sodipodi:guide
       position="452.95119,598.54157"
       orientation="0,1"
       id="guide4159" />
    <sodipodi:guide
       position="466.58825,0.026171377"
       orientation="0,1"
       id="guide4161" />
    <sodipodi:guide
       position="290.02393,261.81836"
       orientation="0,1"
       id="guide4237" />
  </sodipodi:namedview>
  <metadata
     id="metadata7">
    <rdf:RDF>
      <cc:Work
         rdf:about="">
        <dc:format>image/svg+xml</dc:format>
        <dc:type
           rdf:resource="http://purl.org/dc/dcmitype/StillImage" />
        <dc:title></dc:title>
      </cc:Work>
    </rdf:RDF>
  </metadata>
  <g
     inkscape:label="Calque 1"
     inkscape:groupmode="layer"
     id="layer1"
     transform="translate(-72.833221,-227.18109)">
    <rect
       style="opacity:1;fill:#65c4ee;fill-opacity:1;stroke:none;stroke-width:1.57195473;stroke-linecap:round;stroke-miterlimit:4.19999981;stroke-dasharray:none;stroke-dashoffset:0;stroke-opacity:1"
       id="rect4136"
       width="598.42804"
       height="522.71375"
       x="72.833221"
       y="302.89539" />
    <rect
       style="opacity:1;fill:#122e4f;fill-opacity:1;stroke:none;stroke-width:1.30900002;stroke-linecap:round;stroke-miterlimit:4.19999981;stroke-dasharray:none;stroke-dashoffset:0;stroke-opacity:1"
       id="rect4138"
       width="598.57141"
       height="75.714287"
       x="72.833221"
       y="227.18109" />
    <path
       inkscape:connector-curvature="0"
       id="path4268"
       style="font-style:normal;font-variant:normal;font-weight:normal;font-stretch:normal;font-size:70px;line-height:125%;font-family:paola;-inkscape-font-specification:paola;letter-spacing:0px;word-spacing:0px;fill:#ffffff;fill-opacity:1;stroke:none;stroke-width:1px;stroke-linecap:butt;stroke-linejoin:miter;stroke-opacity:1"
       d="m 360.95926,279.65005 q -5.53711,0 -9.74121,-3.72558 -4.2041,3.72558 -9.70703,3.72558 l -9.70703,0 q -6.04981,0 -10.32227,-4.27246 -4.27246,-4.27246 -4.27246,-10.32226 l 0,-8.4082 0,0 0,-2.73438 0,-8.27148 0,-1.23047 q 0,-3.65723 3.65723,-3.65723 l 2.42675,0 q 3.62305,0 3.62305,3.65723 l 0,1.19629 0,0.0342 0,12.40722 0,0 0,7.00684 q 0,2.0166 1.43555,3.45215 1.43554,1.43554 3.45215,1.43554 l 9.70703,0 q 1.94824,0 3.38379,-1.43554 1.46972,-1.43555 1.46972,-3.41797 0,0 0,0 0,0 0,-0.0342 l 0,-7.00684 0,0 0,-12.40722 0,-0.0342 0,-1.19629 q 0,-3.52051 3.55469,-3.65723 0,0 0.0342,0 0.0342,0 0.0684,0 l 0,0 2.42676,0 0,0 q 0,0 0.0342,0 0.0342,0 0.0684,0 3.55468,0.13672 3.55468,3.65723 l 0,1.19629 0,0.0342 0,12.40722 0,0 0,7.00684 q 0,0.0342 -0.0342,0.0342 0,0 0,0 0,1.98242 1.43555,3.41797 1.43555,1.43554 3.45215,1.43554 l 9.70703,0 q 1.98242,0 3.41797,-1.43554 1.43555,-1.43555 1.43555,-3.45215 l 0,-7.00684 0,0 0,-12.40722 0,-0.0342 0,-1.19629 q 0,-3.65723 3.65722,-3.65723 l 2.42676,0 q 3.65723,0 3.65723,3.65723 l 0,1.23047 0,8.27148 0,2.73438 0,0 0,8.4082 q 0,6.0498 -4.30664,10.32226 -4.27246,4.27246 -10.28809,4.27246 l -9.70703,0 z" />
    <path
       inkscape:connector-curvature="0"
       id="path4270"
       style="font-style:normal;font-variant:normal;font-weight:normal;font-stretch:normal;font-size:70px;line-height:125%;font-family:paola;-inkscape-font-specification:paola;letter-spacing:0px;word-spacing:0px;fill:#ffffff;fill-opacity:1;stroke:none;stroke-width:1px;stroke-linecap:butt;stroke-linejoin:miter;stroke-opacity:1"
       d="m 397.87332,278.79556 0,5.67383 q 0,0 0,0.0342 0,0.0342 0,0.0684 l 0,1.12793 q 0,3.62305 -3.62305,3.62305 l -1.23046,0 0,0 -1.19629,0 q -3.65723,0 -3.65723,-3.62305 0,-7.58789 0,-15.17578 0,-7.58789 0,-15.17578 0,-6.01563 4.27246,-10.28809 4.27246,-4.30664 10.32227,-4.30664 l 9.70703,0 q 6.01562,0 10.28808,4.30664 4.27246,4.27246 4.27246,10.28809 0,2.46093 0,4.88769 0,2.42676 0,4.81934 0,6.0498 -4.27246,10.32226 -4.27246,4.27246 -10.28808,4.27246 l -9.70703,0 q -2.49512,0 -4.8877,-0.85449 z m 4.8877,-8.85254 9.70703,0 q 1.94824,0 3.38379,-1.43554 1.46972,-1.43555 1.46972,-3.45215 0,-2.39258 0,-4.81934 0,-2.42676 0,-4.88769 0,-1.98242 -1.46972,-3.41797 -1.43555,-1.43555 -3.38379,-1.43555 l -9.70703,0 q -2.0166,0 -3.45215,1.43555 -1.43555,1.43555 -1.43555,3.41797 l 0,7.10937 0,0 0,2.73438 q 0.0342,1.94824 1.46973,3.34961 1.43554,1.40136 3.41797,1.40136 z" />
    <path
       inkscape:connector-curvature="0"
       id="path4258"
       style="font-style:normal;font-variant:normal;font-weight:normal;font-stretch:normal;font-size:271.48190308px;line-height:125%;font-family:paola;-inkscape-font-specification:paola;letter-spacing:0px;word-spacing:0px;fill:#122e4f;fill-opacity:1;stroke:none;stroke-width:1px;stroke-linecap:butt;stroke-linejoin:miter;stroke-opacity:1"
       d="m 183.81119,399.18436 q -7.99275,0 -13.68251,5.44787 -5.68975,5.44787 -5.68975,12.97112 l 0,36.838 q 0,7.65296 5.68975,13.10083 5.68976,5.44787 13.68251,5.44787 5.96069,0 11.92139,0 5.9607,0 12.05687,0 14.49532,0 14.49532,13.74939 l 0,4.6696 0,0 0,4.53989 q 0,13.87911 -14.49532,13.87911 -6.09617,0 -12.05687,0 -5.9607,0 -11.92139,0 -23.97826,0 -40.91205,-16.21391 -16.9338,-16.2139 -16.9338,-39.17278 l 0,-36.838 q 0,-22.82917 16.9338,-39.04308 16.93379,-16.34361 40.91205,-16.34361 l 38.47358,0 q 23.84278,0 40.77658,16.34361 16.93379,16.21391 16.93379,39.04308 l 0,31.90897 0,0 0,10.3769 0,31.51982 0,4.53989 q 0,13.87911 -14.35986,13.87911 l -9.61839,0 q -14.49533,0 -14.49533,-13.87911 l 0,-4.53989 0,0 0,-47.21489 0,0 0,-26.5908 q 0,-7.52325 -5.82522,-12.97112 -5.68976,-5.44787 -13.41157,-5.44787 l -38.47358,0 z" />
    <path
       inkscape:connector-curvature="0"
       id="path4260"
       style="font-style:normal;font-variant:normal;font-weight:normal;font-stretch:normal;font-size:271.48190308px;line-height:125%;font-family:paola;-inkscape-font-specification:paola;letter-spacing:0px;word-spacing:0px;fill:#122e4f;fill-opacity:1;stroke:none;stroke-width:1px;stroke-linecap:butt;stroke-linejoin:miter;stroke-opacity:1"
       d="m 333.50593,506.58526 0,21.53207 q 0,0 0,0.12971 0,0.12971 0,0.25941 l 0,4.28048 q 0,13.74939 -14.35986,13.74939 l -4.87693,0 0,0 -4.74147,0 q -14.49533,0 -14.49533,-13.74939 0,-28.7959 0,-57.59179 0,-28.79589 0,-57.59179 0,-22.82917 16.9338,-39.04308 16.93379,-16.34361 40.91205,-16.34361 l 38.47358,0 q 23.84278,0 40.77658,16.34361 16.93379,16.21391 16.93379,39.04308 0,9.33921 0,18.54871 0,9.2095 0,18.28929 0,22.95888 -16.93379,39.17278 -16.9338,16.21391 -40.77658,16.21391 l -38.47358,0 q -9.88934,0 -19.37226,-3.24278 z m 19.37226,-33.59521 38.47358,0 q 7.72181,0 13.41157,-5.44787 5.82523,-5.44787 5.82523,-13.10083 0,-9.07979 0,-18.28929 0,-9.2095 0,-18.54871 0,-7.52325 -5.82523,-12.97112 -5.68976,-5.44787 -13.41157,-5.44787 l -38.47358,0 q -7.99275,0 -13.6825,5.44787 -5.68976,5.44787 -5.68976,12.97112 l 0,26.97994 0,0 0,10.3769 q 0.13547,7.39354 5.82523,12.7117 5.68975,5.31816 13.54703,5.31816 z" />
    <path
       inkscape:connector-curvature="0"
       id="path4262"
       style="font-style:normal;font-variant:normal;font-weight:normal;font-stretch:normal;font-size:271.48190308px;line-height:125%;font-family:paola;-inkscape-font-specification:paola;letter-spacing:0px;word-spacing:0px;fill:#122e4f;fill-opacity:1;stroke:none;stroke-width:1px;stroke-linecap:butt;stroke-linejoin:miter;stroke-opacity:1"
       d="m 502.57293,506.58526 0,21.53207 q 0,0 0,0.12971 0,0.12971 0,0.25941 l 0,4.28048 q 0,13.74939 -14.35986,13.74939 l -4.87693,0 0,0 -4.74147,0 q -14.49532,0 -14.49532,-13.74939 0,-28.7959 0,-57.59179 0,-28.79589 0,-57.59179 0,-22.82917 16.93379,-39.04308 16.93379,-16.34361 40.91205,-16.34361 l 38.47358,0 q 23.84279,0 40.77658,16.34361 16.93379,16.21391 16.93379,39.04308 0,9.33921 0,18.54871 0,9.2095 0,18.28929 0,22.95888 -16.93379,39.17278 -16.93379,16.21391 -40.77658,16.21391 l -38.47358,0 q -9.88933,0 -19.37226,-3.24278 z m 19.37226,-33.59521 38.47358,0 q 7.72182,0 13.41157,-5.44787 5.82523,-5.44787 5.82523,-13.10083 0,-9.07979 0,-18.28929 0,-9.2095 0,-18.54871 0,-7.52325 -5.82523,-12.97112 -5.68975,-5.44787 -13.41157,-5.44787 l -38.47358,0 q -7.99275,0 -13.6825,5.44787 -5.68976,5.44787 -5.68976,12.97112 l 0,26.97994 0,0 0,10.3769 q 0.13547,7.39354 5.82523,12.7117 5.68975,5.31816 13.54703,5.31816 z" />
    <path
       inkscape:connector-curvature="0"
       id="path4275"
       style="font-style:normal;font-variant:normal;font-weight:normal;font-stretch:normal;font-size:271.48190308px;line-height:125%;font-family:paola;-inkscape-font-specification:paola;letter-spacing:0px;word-spacing:0px;fill:#ffffff;fill-opacity:1;stroke:none;stroke-width:1px;stroke-linecap:butt;stroke-linejoin:miter;stroke-opacity:1"
       d="m 237.1865,581.18991 9.6184,0 q 14.35985,0 14.35985,13.8791 l 0,107.53061 84.12709,-80.55067 q 10.29576,-9.59864 20.45603,0 l 6.77352,6.61527 q 10.29574,9.72834 0,19.58639 l -45.51804,43.58298 45.51804,43.71268 q 10.29574,9.72835 0,19.45669 l -6.77352,6.61528 q -10.16027,9.3392 -20.45603,0 l -45.51804,-43.71269 -36.98341,35.41117 q -0.54187,0.51884 -1.89658,1.55653 -2.7094,10.76603 -14.08891,10.76603 l -9.6184,0 q -14.49533,0 -14.49533,-13.8791 l 0,-156.69117 q 0,-13.8791 14.49533,-13.8791 z" />
    <path
       inkscape:connector-curvature="0"
       id="path4277"
       style="font-style:normal;font-variant:normal;font-weight:normal;font-stretch:normal;font-size:271.48190308px;line-height:125%;font-family:paola;-inkscape-font-specification:paola;letter-spacing:0px;word-spacing:0px;fill:#ffffff;fill-opacity:1;stroke:none;stroke-width:1px;stroke-linecap:butt;stroke-linejoin:miter;stroke-opacity:1"
       d="m 406.79539,636.57661 9.61839,0 q 14.35986,0 14.35986,13.74939 l 0,101.43418 q 0,13.8791 -14.35986,13.8791 l -9.61839,0 q -14.49533,0 -14.49533,-13.8791 l 0,-101.43418 q 0,-13.74939 14.49533,-13.74939 z m 0,-55.3867 9.61839,0 q 14.35986,0 14.35986,13.8791 l 0,9.20949 q 0,13.74939 -14.35986,13.74939 l -9.61839,0 q -14.49533,0 -14.49533,-13.74939 l 0,-9.20949 q 0,-13.8791 14.49533,-13.8791 z" />
    <path
       inkscape:connector-curvature="0"
       id="path4279"
       style="font-style:normal;font-variant:normal;font-weight:normal;font-stretch:normal;font-size:271.48190308px;line-height:125%;font-family:paola;-inkscape-font-specification:paola;letter-spacing:0px;word-spacing:0px;fill:#ffffff;fill-opacity:1;stroke:none;stroke-width:1px;stroke-linecap:butt;stroke-linejoin:miter;stroke-opacity:1"
       d="m 482.79425,710.25258 q 0,11.28488 7.17992,14.9168 7.31541,3.63192 12.19234,3.63192 l 0,-0.12972 4.74146,0 q 14.49533,0 14.49533,13.87911 l 0,9.20949 q 0,13.74939 -14.49533,13.74939 l -2.98034,0 q -0.67735,0.12971 -1.76112,0.12971 -23.97825,0 -40.91204,-16.2139 -16.9338,-16.21391 -16.9338,-39.1728 l 0,-78.99413 0,-0.25942 0,-35.93002 q 0,-13.8791 14.49532,-13.8791 l 4.74147,0 0,0 4.87693,0 q 14.35986,0 14.35986,13.8791 l 0,4.28047 0,0.25942 0,18.41899 19.37226,0 0,0 4.74146,0 q 14.49533,0 14.49533,13.87911 l 0,4.66961 0,0 0,4.53989 q 0,13.8791 -14.49533,13.8791 l -4.74146,0 0,0 -19.37226,0 0,55.25698 z" />
  </g>
</svg>
